<svg width="61" height="32" viewBox="0 0 61 32" fill="none" xmlns="http://www.w3.org/2000/svg">
<mask id="path-1-inside-1_2_16676" fill="white">
<path fill-rule="evenodd" clip-rule="evenodd" d="M28.3408 26.7495C25.3622 29.9747 21.0624 32 16.2813 32C7.28938 32 1.54502e-06 24.8366 0 16C-1.54503e-06 7.16345 7.28938 1.5722e-06 16.2813 0C21.0624 -8.35964e-07 25.3622 2.02526 28.3408 5.25045V0.000119224H60.9034V32.0001H28.3408V26.7495Z"/>
</mask>
<path fill-rule="evenodd" clip-rule="evenodd" d="M28.3408 26.7495C25.3622 29.9747 21.0624 32 16.2813 32C7.28938 32 1.54502e-06 24.8366 0 16C-1.54503e-06 7.16345 7.28938 1.5722e-06 16.2813 0C21.0624 -8.35964e-07 25.3622 2.02526 28.3408 5.25045V0.000119224H60.9034V32.0001H28.3408V26.7495Z" fill="#F48434"/>
<path d="M28.3408 26.7495H28.4908V26.366L28.2306 26.6478L28.3408 26.7495ZM16.2813 32V31.85V32ZM0 16H0.15H0ZM16.2813 0V0.15V0ZM28.3408 5.25045L28.2306 5.35222L28.4908 5.63395V5.25045H28.3408ZM28.3408 0.000119224V-0.149881H28.1908V0.000119224H28.3408ZM60.9034 0.000119224H61.0534V-0.149881H60.9034V0.000119224ZM60.9034 32.0001V32.1501H61.0534V32.0001H60.9034ZM28.3408 32.0001H28.1908V32.1501H28.3408V32.0001ZM28.2306 26.6478C25.2796 29.8432 21.0193 31.85 16.2813 31.85V32.15C21.1056 32.15 25.4449 30.1063 28.451 26.8513L28.2306 26.6478ZM16.2813 31.85C7.36975 31.85 0.150002 24.7513 0.15 16H-0.15C-0.149998 24.9219 7.20902 32.15 16.2813 32.15V31.85ZM0.15 16C0.149998 7.24874 7.36975 0.150002 16.2813 0.15V-0.15C7.20901 -0.149998 -0.150002 7.07815 -0.15 16H0.15ZM16.2813 0.15C21.0193 0.149999 25.2796 2.15683 28.2306 5.35222L28.451 5.14868C25.4449 1.8937 21.1056 -0.150001 16.2813 -0.15V0.15ZM28.4908 5.25045V0.000119224H28.1908V5.25045H28.4908ZM28.3408 0.150119H60.9034V-0.149881H28.3408V0.150119ZM60.7534 0.000119224V32.0001H61.0534V0.000119224H60.7534ZM60.9034 31.8501H28.3408V32.1501H60.9034V31.8501ZM28.4908 32.0001V26.7495H28.1908V32.0001H28.4908Z" fill="#F48434" mask="url(#path-1-inside-1_2_16676)"/>
<path fill-rule="evenodd" clip-rule="evenodd" d="M14.6651 18.603L15.9718 19.884L15.9077 19.9294C15.0949 20.5044 14.0966 20.8433 13.0177 20.8433C10.2883 20.8433 8.07556 18.6749 8.07556 15.9999C8.07556 13.3249 10.2883 11.1565 13.0177 11.1565C14.0966 11.1565 15.0949 11.4954 15.9077 12.0704L15.9718 12.1158L14.6651 13.3969L14.6201 13.3705C14.1517 13.0958 13.6037 12.9379 13.0177 12.9379C11.2911 12.9379 9.89257 14.3095 9.89257 15.9999C9.89257 17.6903 11.2911 19.0619 13.0177 19.0619C13.6037 19.0619 14.1517 18.904 14.6201 18.6294L14.6651 18.603Z" fill="white"/>
<path fill-rule="evenodd" clip-rule="evenodd" d="M21.6536 19.0829C23.3911 19.0829 24.7995 17.7025 24.7995 15.9999C24.7995 14.2972 23.3911 12.9169 21.6536 12.9169C19.9162 12.9169 18.5077 14.2972 18.5077 15.9999C18.5077 17.7025 19.9162 19.0829 21.6536 19.0829ZM26.602 15.9999C26.602 18.6782 24.3865 20.8494 21.6536 20.8494C18.9208 20.8494 16.7053 18.6782 16.7053 15.9999C16.7053 13.3216 18.9208 11.1504 21.6536 11.1504C24.3865 11.1504 26.602 13.3215 26.602 15.9999Z" fill="white"/>
<path d="M28.4218 11.1504L30.2066 11.1504L30.2066 19.0863L34.211 19.0863L34.211 20.8494L28.4218 20.8494L28.4218 11.1504Z" fill="white"/>
<path fill-rule="evenodd" clip-rule="evenodd" d="M39.7668 11.1504V20.8494H41.5516L41.5516 16.8856L43.9573 16.8856L43.9573 15.1341L41.5516 15.1341L41.5516 12.9019L45.556 12.9019V11.1504H39.7668Z" fill="white"/>
<path fill-rule="evenodd" clip-rule="evenodd" d="M47.0385 20.8493L47.0385 11.1504L52.8277 11.1504V12.8985L48.8233 12.8985L48.8233 15.1258L51.229 15.1258L51.229 16.8739L48.8233 16.8739L48.8233 19.1012L52.8277 19.1012V20.8493L47.0385 20.8493Z" fill="white"/>
<path fill-rule="evenodd" clip-rule="evenodd" d="M36.0287 11.1504L37.8135 11.1504L37.8135 20.8494L36.0287 20.8494L36.0287 11.1504Z" fill="white"/>
</svg>
